<?xml version="1.0" encoding="UTF-8" standalone="no"?>
<!-- Generator: Adobe Illustrator 14.0.0, SVG Export Plug-In . SVG Version: 6.00 Build 43363)  -->

<svg
   xmlns:dc="http://purl.org/dc/elements/1.1/"
   xmlns:cc="http://creativecommons.org/ns#"
   xmlns:rdf="http://www.w3.org/1999/02/22-rdf-syntax-ns#"
   xmlns:svg="http://www.w3.org/2000/svg"
   xmlns="http://www.w3.org/2000/svg"
   xmlns:sodipodi="http://sodipodi.sourceforge.net/DTD/sodipodi-0.dtd"
   xmlns:inkscape="http://www.inkscape.org/namespaces/inkscape"
   version="1.1"
   id="Capa_1"
   x="0px"
   y="0px"
   width="500.00003"
   height="249.21544"
   viewBox="0 0 500.00003 249.21544"
   enable-background="new 0 0 792 612"
   xml:space="preserve"
   inkscape:version="0.47 r22583"
   sodipodi:docname="DIF logo.svg"><metadata
   id="metadata113"><rdf:RDF><cc:Work
       rdf:about=""><dc:format>image/svg+xml</dc:format><dc:type
         rdf:resource="http://purl.org/dc/dcmitype/StillImage" /><dc:title></dc:title></cc:Work></rdf:RDF></metadata><defs
   id="defs111"><inkscape:perspective
   sodipodi:type="inkscape:persp3d"
   inkscape:vp_x="0 : 306 : 1"
   inkscape:vp_y="0 : 1000 : 0"
   inkscape:vp_z="792 : 306 : 1"
   inkscape:persp3d-origin="396 : 204 : 1"
   id="perspective115" />
	
	
	
	
	
	
	
	
	
	
</defs><sodipodi:namedview
   pagecolor="#ffffff"
   bordercolor="#666666"
   borderopacity="1"
   objecttolerance="10"
   gridtolerance="10"
   guidetolerance="10"
   inkscape:pageopacity="0"
   inkscape:pageshadow="2"
   inkscape:window-width="1366"
   inkscape:window-height="706"
   id="namedview109"
   showgrid="false"
   inkscape:zoom="1.6045274"
   inkscape:cx="250"
   inkscape:cy="124.60772"
   inkscape:window-x="-8"
   inkscape:window-y="-8"
   inkscape:window-maximized="1"
   inkscape:current-layer="Capa_1" />
<g
   id="g3022"
   transform="matrix(1.1905386,0,0,1.1905386,0,-1.7064943e-6)"><g
     transform="translate(-331.793,-195.252)"
     id="g5">
		<polygon
   clip-rule="evenodd"
   points="683.95,404.542 683.854,331.031 750.998,331.127 750.901,270.647 683.562,270.647 683.562,257.808 751.675,257.808 751.771,196.568 623.481,196.947 623.673,404.447 623.673,404.447 "
   id="polygon7"
   style="fill-rule:evenodd" />
		<polygon
   clip-rule="evenodd"
   points="743.523,249.733 675.219,249.733 675.313,273.602 742.65,273.602 742.65,321.719 676.086,321.816 676.086,397.701 625.195,397.607 625.002,200.664 743.429,200.664 743.429,200.664 "
   id="polygon9"
   style="fill:#ffffff;fill-rule:evenodd" />
		<polygon
   clip-rule="evenodd"
   points="674.144,394.86 673.95,320.018 740.807,320.112 740.708,281.219 672.983,281.315 673.08,247.081 741.68,247.081 741.68,208.091 633.314,208.187 633.411,394.86 633.411,394.86 "
   id="polygon11"
   style="fill-rule:evenodd" />
		<polygon
   clip-rule="evenodd"
   points="732.979,238.378 664.959,238.378 664.959,283.548 732.492,283.548 732.492,312.554 665.641,312.456 665.544,386.154 636.515,386.251 636.323,211.275 732.979,211.275 732.979,211.275 "
   id="polygon13"
   style="fill:#ffffff;fill-rule:evenodd" />
		<polygon
   clip-rule="evenodd"
   points="643.246,383.367 643.246,383.367 663.273,383.367 662.98,310.336 727.998,310.145 730.13,310.145 730.13,307.768 730.13,291.602 662.789,291.602 662.789,236.543 730.13,236.543 730.13,218.188 643.053,218.188 "
   id="polygon15"
   style="fill-rule:evenodd" />
		<polygon
   clip-rule="evenodd"
   points="721.462,228.441 654.412,228.347 654.314,294.534 721.367,294.534 721.367,302.045 655.281,302.234 655.281,375.458 646.67,375.458 646.861,221.308 721.462,221.308 721.462,221.308 "
   id="polygon17"
   style="fill:#ffffff;fill-rule:evenodd" />
	</g><g
     transform="translate(-331.793,-195.252)"
     id="g19">
		<path
   clip-rule="evenodd"
   d="m 331.793,404.582 62.048,-0.184 c 13.938,0 23.615,-1.66 34.068,-6.186 31.171,-11.9 55.463,-34.967 66.018,-63.94 4.353,-11.811 6.581,-24.36 6.004,-36.908 -0.778,-16.979 -6.492,-33.494 -15.782,-47.98 -4.259,-6.55 -9.194,-12.549 -14.033,-18.73 -4.647,-5.813 -11.134,-10.15 -17.331,-14.487 -3.966,-2.768 -8.128,-5.167 -12.387,-7.38 -5.904,-3.045 -12.292,-5.445 -18.683,-7.383 -9.677,-2.952 -21.102,-4.43 -31.941,-4.797 h -53.914 -3.972 l -0.095,207.975 0,0 z"
   id="path21"
   style="fill-rule:evenodd" />
		<path
   clip-rule="evenodd"
   d="m 335.277,203.526 v -3.137 h 2.031 l 50.53,-0.368 15.973,0.921 c 4.837,0.277 9.578,1.478 14.32,2.769 6.782,1.846 13.267,4.337 19.458,7.383 26.813,13.194 47.14,38.2 53.239,66.433 6.194,28.235 -1.839,59.053 -21.293,81.194 -10.65,12.09 -24.299,21.871 -39.591,27.962 -10.941,4.336 -22.844,7.658 -34.559,8.67 l -60.303,-0.092 0.195,-191.735 0,0 z"
   id="path23"
   style="fill:#ffffff;fill-rule:evenodd" />
		<path
   clip-rule="evenodd"
   d="m 336.567,386.906 v 6.181 l 5.52,0.097 h 27.687 l 27.49,-0.097 c 8.323,-0.182 16.454,-3.226 24.389,-5.719 18.878,-6.091 35.717,-17.439 48.302,-32.111 8.036,-11.349 14.325,-24.079 16.939,-37.554 2.903,-14.761 1.743,-30.078 -3.292,-44.288 -3.774,-10.703 -9.969,-20.575 -17.135,-29.527 -8.322,-10.426 -18.777,-19.376 -30.777,-25.834 -6.1,-3.229 -12.582,-5.721 -19.265,-7.381 -10.161,-2.585 -20.715,-3.414 -31.069,-3.23 l -48.881,0.185 0.093,8.12 v 171.158 l -10e-4,0 z"
   id="path25"
   style="fill-rule:evenodd" />
		<path
   clip-rule="evenodd"
   d="m 432.148,219.873 c 4.261,2.03 8.227,4.429 12.681,7.382 6.484,3.784 11.519,9.228 16.357,14.764 14.227,16.423 22.069,37.83 21.006,59.052 -0.776,15.779 -6.487,31.279 -15.874,44.291 -9.004,12.549 -21.588,22.789 -35.91,29.524 -6.872,3.23 -14.229,5.261 -21.491,7.383 l -14.422,2.306 H 340.677 V 210.556 h 4.838 l 48.881,-0.093 c 12.488,0.553 26.716,2.953 37.752,9.41 l 0,0 z"
   id="path27"
   style="fill:#ffffff;fill-rule:evenodd" />
		<path
   clip-rule="evenodd"
   d="m 347.502,380.976 h 46.948 c 32.231,0 64.848,-21.038 77.341,-49.917 6.482,-15.043 7.449,-32.111 3.579,-47.981 -3.389,-13.747 -11.231,-26.203 -20.812,-36.907 -6.484,-7.29 -14.233,-13.657 -22.941,-18.454 -5.808,-3.229 -11.809,-5.998 -18.393,-7.382 -3.582,-0.738 -6.968,-2.123 -10.644,-2.307 l -55.079,0.093 v 7.565 155.29 l 0.001,0 z"
   id="path29"
   style="fill-rule:evenodd" />
		<path
   clip-rule="evenodd"
   d="m 413.529,223.871 c 3.48,1.014 6.871,2.214 10.16,3.69 24.49,10.704 43.069,33.587 46.753,59.053 3.772,26.111 -8.034,53.608 -29.617,70.126 -12.877,9.779 -28.942,16.146 -45.305,17.532 l -44.233,0.092 -0.292,-149.109 v -4.428 h 47.236 c 5.227,0.553 10.261,1.568 15.298,3.044 l 0,0 z"
   id="path31"
   style="fill:#ffffff;fill-rule:evenodd" />
		<path
   clip-rule="evenodd"
   d="m 358.691,360.669 v 5.723 h 2.907 33.878 c 7.838,-0.094 15.487,-2.492 22.65,-5.353 22.453,-8.857 39.492,-28.973 43.944,-51.672 4.454,-22.697 -4.742,-47.057 -22.46,-62.741 -11.906,-10.519 -27.487,-16.795 -43.651,-18.639 l -37.658,0.092 0.389,4.243 v 128.347 l 10e-4,0 z"
   id="path33"
   style="fill-rule:evenodd" />
		<path
   clip-rule="evenodd"
   d="m 367.941,236.774 h 28.457 c 4.741,0 10.648,0.276 15.874,1.567 11.422,2.86 22.267,8.305 30.493,16.426 16.264,16.146 21.003,41.52 13.552,62.742 -3.971,11.443 -11.42,21.776 -21.1,29.527 -11.327,9.136 -25.752,14.486 -40.56,16.052 l -12.1,0.095 -14.424,-0.095 v -5.072 l -0.192,-121.242 0,0 z"
   id="path35"
   style="fill:#ffffff;fill-rule:evenodd" />
		<path
   clip-rule="evenodd"
   d="m 369.658,352.535 v 3.783 h 7.359 16.839 c 13.744,-1.11 26.232,-5.723 36.299,-13.842 16.454,-13.287 25.264,-35.154 21.298,-55.362 -2.132,-10.979 -7.556,-21.314 -15.49,-29.526 -10.066,-10.52 -24.391,-19.1 -38.912,-19.1 h -27.296 v 4.059 l -0.097,109.988 0,0 z"
   id="path37"
   style="fill-rule:evenodd" />
		<path
   clip-rule="evenodd"
   d="m 378.486,246.938 h 20.906 c 10.069,0 19.848,3.967 28.072,9.411 4.647,3.045 9.102,6.644 12.389,11.074 12.488,17.069 11.908,41.428 0.293,59.05 -7.064,10.611 -17.909,18.916 -30.296,23.07 -9.196,3.135 -19.168,3.875 -28.848,3.227 h -2.42 v -4.06 l -0.096,-101.772 0,0 z"
   id="path39"
   style="fill:#ffffff;fill-rule:evenodd" />
		<path
   clip-rule="evenodd"
   d="m 380.786,341.88 v 3.968 l 2.514,0.092 c 10.163,0.553 20.618,-0.923 29.618,-5.353 9.586,-4.705 17.716,-12.086 22.555,-21.222 3.681,-6.828 5.711,-14.487 5.811,-22.144 0.193,-12.272 -5.327,-24.267 -14.035,-33.217 -4.844,-4.612 -10.358,-8.581 -16.554,-11.256 -4.258,-1.845 -7.646,-3.507 -12.974,-3.877 h -17.034 l 0.099,93.009 0,0 z"
   id="path41"
   style="fill-rule:evenodd" />
		<path
   clip-rule="evenodd"
   d="m 389.546,257.065 h 6.97 c 3.099,0.184 7.263,0.831 10.649,1.661 8.033,2.121 16.164,6.182 21.778,12.364 12.682,14.024 11.521,36.445 0.58,51.672 -6.576,9.225 -16.938,15.776 -28.263,18.454 -2.224,0.55 -4.549,1.104 -6.872,1.198 h -4.741 l -0.102,-3.046 v -78.428 -3.875 l 10e-4,0 z"
   id="path43"
   style="fill:#ffffff;fill-rule:evenodd" />
	</g><g
     transform="translate(-331.793,-195.252)"
     id="g45">
		<polygon
   clip-rule="evenodd"
   points="594.99,337.073 594.99,314.33 594.99,293.652 595.089,274.01 595.188,254.087 595.089,236.51 595.089,223.258 595.089,195.252 529.651,195.252 529.651,195.252 529.651,222.318 529.651,236.323 529.651,254.555 529.651,273.729 529.558,294.121 529.558,314.893 529.456,337.919 529.456,361.508 529.651,403.332 594.893,403.144 594.99,364.798 "
   id="polygon47"
   style="fill-rule:evenodd" />
		<polygon
   clip-rule="evenodd"
   points="536.384,236.358 536.384,222.731 536.384,197.637 584.869,197.637 584.869,223.107 584.869,236.734 584.869,254.216 584.772,274.046 584.772,293.783 584.772,293.783 584.772,314.458 584.676,337.203 584.676,364.364 585.069,394.627 536.089,394.627 536.384,361.921 536.384,337.862 536.384,314.832 536.384,294.064 536.384,274.046 536.384,254.591 "
   id="polygon49"
   style="fill:#ffffff;fill-rule:evenodd" />
		<polygon
   clip-rule="evenodd"
   points="540.748,222.717 540.748,236.437 540.748,254.483 540.748,274.032 540.748,294.05 540.748,314.822 540.748,337.848 540.748,362.096 540.848,390.665 540.848,390.665 581.155,390.479 581.155,363.411 580.86,337.283 580.86,314.443 580.86,293.769 580.86,274.032 580.759,254.201 580.662,236.721 580.662,223.093 580.759,205.235 540.748,205.235 "
   id="polygon51"
   style="fill-rule:evenodd" />
		<polygon
   clip-rule="evenodd"
   points="543.8,222.169 543.8,207.979 571.889,207.979 572.084,222.263 572.084,235.608 572.084,253.747 572.084,273.015 571.985,293.878 571.985,314.555 571.985,337.392 571.985,363.708 571.985,379.12 571.985,379.12 571.985,383.539 548.429,383.539 543.698,383.539 543.698,379.498 543.698,362.298 543.698,337.767 543.698,314.74 543.698,294.065 543.8,274.047 543.898,254.5 543.8,235.984 "
   id="polygon53"
   style="fill:#ffffff;fill-rule:evenodd" />
		<polygon
   clip-rule="evenodd"
   points="551.058,222.21 551.058,236.685 551.058,254.259 551.058,273.807 550.961,294.014 550.961,314.784 550.864,337.716 551.058,361.966 551.058,381.042 551.058,381.042 569.785,380.855 569.785,363.656 569.785,337.436 569.785,314.596 569.785,293.921 569.785,274.089 569.785,254.352 569.785,236.685 569.785,223.057 569.887,215.351 551.058,215.256 "
   id="polygon55"
   style="fill-rule:evenodd" />
		<polygon
   clip-rule="evenodd"
   points="553.55,337.732 553.55,314.801 553.55,294.029 553.649,274.105 553.649,254.463 553.649,236.607 553.649,222.886 553.649,217.999 561.431,217.999 561.431,217.999 561.431,222.321 561.431,236.699 561.334,254.463 561.334,274.105 561.431,294.029 561.431,314.707 561.431,337.637 561.532,363.201 561.532,370.438 553.449,370.438 553.449,362.826 "
   id="polygon57"
   style="fill:#ffffff;fill-rule:evenodd" />
	</g></g>
</svg>